<svg width="119" height="20" fill="none" xmlns="http://www.w3.org/2000/svg">
  <path d="M.464 19V.832h3.144v11.904l-1.2-.36 6.144-6.432h3.912L7.64 11.2l4.92 7.8h-3.6l-4.272-6.768 1.872-.384-3.936 4.224.984-1.92V19H.464Zm29.508 0V5.944h2.952v3.024l-.336-.504c.24-.944.72-1.648 1.44-2.112.72-.464 1.568-.696 2.544-.696 1.072 0 2.016.28 2.832.84.816.56 1.344 1.296 1.584 2.208l-.888.072c.4-1.04 1-1.816 1.8-2.328.8-.528 1.72-.792 2.76-.792.928 0 1.752.208 2.472.624a4.44 4.44 0 0 1 1.728 1.752c.416.736.624 1.592.624 2.568V19H46.34v-7.656c0-.576-.104-1.072-.312-1.488a2.293 2.293 0 0 0-.864-.96c-.368-.24-.816-.36-1.344-.36-.496 0-.936.12-1.32.36-.384.224-.68.544-.888.96-.208.416-.312.912-.312 1.488V19h-3.144v-7.656c0-.576-.104-1.072-.312-1.488a2.244 2.244 0 0 0-.888-.96c-.368-.24-.808-.36-1.32-.36-.496 0-.936.12-1.32.36-.384.224-.68.544-.888.96-.208.416-.312.912-.312 1.488V19h-3.144Zm22.172 0V5.944h3.144V19h-3.144Zm0-14.52V1.12h3.144v3.36h-3.144ZM58.19 19V5.944h2.952v2.568l-.24-.456c.304-.784.8-1.376 1.488-1.776.704-.416 1.52-.624 2.448-.624.96 0 1.808.208 2.544.624.752.416 1.336 1 1.752 1.752.416.736.624 1.592.624 2.568V19h-3.144v-7.656c0-.576-.112-1.072-.336-1.488a2.353 2.353 0 0 0-.936-.96c-.384-.24-.84-.36-1.368-.36-.512 0-.968.12-1.368.36-.4.224-.712.544-.936.96-.224.416-.336.912-.336 1.488V19H58.19Zm15.738 0V8.752h-2.304V5.944h2.304v-.432c0-.992.2-1.832.6-2.52a4.09 4.09 0 0 1 1.728-1.608c.736-.368 1.608-.552 2.616-.552.192 0 .4.016.624.048.24.016.44.04.6.072v2.712a2.328 2.328 0 0 0-.456-.048 2.911 2.911 0 0 0-.36-.024c-.704 0-1.248.16-1.632.48-.384.304-.576.784-.576 1.44v.432h2.904v2.808h-2.904V19H73.93Zm29.966.288c-1.264 0-2.392-.296-3.384-.888a6.591 6.591 0 0 1-2.352-2.472c-.576-1.04-.864-2.192-.864-3.456 0-1.28.288-2.432.864-3.456a6.643 6.643 0 0 1 2.352-2.448c1.008-.608 2.128-.912 3.36-.912.992 0 1.872.2 2.64.6a4.47 4.47 0 0 1 1.848 1.632l-.48.648V.832h3.144V19h-2.976v-2.52l.336.624c-.448.704-1.072 1.248-1.872 1.632-.8.368-1.672.552-2.616.552Zm.336-2.88c.72 0 1.352-.168 1.896-.504.544-.336.968-.8 1.272-1.392.32-.592.48-1.272.48-2.04 0-.752-.16-1.424-.48-2.016a3.418 3.418 0 0 0-1.272-1.416c-.544-.336-1.176-.504-1.896-.504-.704 0-1.336.176-1.896.528-.56.336-1 .8-1.32 1.392-.304.576-.456 1.248-.456 2.016s.152 1.448.456 2.04c.32.592.76 1.056 1.32 1.392.56.336 1.192.504 1.896.504Z" fill="#007AFF"/>
  <path d="M20.7 19.288c-1.28 0-2.448-.296-3.504-.888a6.84 6.84 0 0 1-2.496-2.424c-.608-1.024-.912-2.192-.912-3.504 0-1.312.304-2.48.912-3.504a6.84 6.84 0 0 1 2.496-2.424c1.04-.592 2.208-.888 3.504-.888 1.28 0 2.44.296 3.48.888a6.655 6.655 0 0 1 2.472 2.424c.624 1.008.936 2.176.936 3.504 0 1.312-.312 2.48-.936 3.504a6.84 6.84 0 0 1-2.496 2.424c-1.04.592-2.192.888-3.456.888Zm0-2.88c.704 0 1.32-.168 1.848-.504.544-.336.968-.8 1.272-1.392.32-.608.48-1.288.48-2.04 0-.768-.16-1.44-.48-2.016a3.453 3.453 0 0 0-1.272-1.392c-.528-.352-1.144-.528-1.848-.528-.72 0-1.352.176-1.896.528-.544.336-.976.8-1.296 1.392-.304.576-.456 1.248-.456 2.016 0 .752.152 1.432.456 2.04.32.592.752 1.056 1.296 1.392.544.336 1.176.504 1.896.504Zm67.851 2.88c-1.28 0-2.448-.296-3.504-.888a6.84 6.84 0 0 1-2.496-2.424c-.608-1.024-.912-2.192-.912-3.504 0-1.312.304-2.48.912-3.504a6.84 6.84 0 0 1 2.496-2.424c1.04-.592 2.208-.888 3.504-.888 1.28 0 2.44.296 3.48.888a6.655 6.655 0 0 1 2.472 2.424c.624 1.008.936 2.176.936 3.504 0 1.312-.312 2.48-.936 3.504a6.84 6.84 0 0 1-2.496 2.424c-1.04.592-2.192.888-3.456.888Zm0-2.88c.704 0 1.32-.168 1.848-.504.544-.336.968-.8 1.272-1.392.32-.608.48-1.288.48-2.04 0-.768-.16-1.44-.48-2.016A3.453 3.453 0 0 0 90.4 9.064c-.528-.352-1.144-.528-1.848-.528-.72 0-1.352.176-1.896.528-.544.336-.976.8-1.296 1.392-.304.576-.456 1.248-.456 2.016 0 .752.152 1.432.456 2.04.32.592.752 1.056 1.296 1.392.544.336 1.176.504 1.896.504ZM115.436 19v-3.36h3.168V19h-3.168Z" fill="#05122E"/>
</svg>
